<!-- icon666.com - MILLIONS OF FREE VECTOR ICONS --><svg id="Capa_1" enable-background="new 0 0 512 512" viewBox="0 0 512 512" xmlns="http://www.w3.org/2000/svg"><g><path d="m131.316 84.563c-1.784-8.09-9.786-13.197-17.871-11.417l-41.709 9.206c-6.871 1.516-11.763 7.609-11.763 14.648v70.58c-4.693-1.665-9.737-2.58-14.993-2.58-24.802 0-44.98 20.187-44.98 45s20.178 45 44.98 45 44.98-20.187 44.98-45v-100.949l29.945-6.609c8.086-1.785 13.195-9.789 11.411-17.879zm-86.336 140.437c-8.267 0-14.993-6.729-14.993-15s6.726-15 14.993-15 14.993 6.729 14.993 15-6.726 15-14.993 15z"></path><path d="m511.645 84.563c-1.783-8.09-9.791-13.199-17.871-11.417l-41.71 9.206c-6.871 1.517-11.763 7.609-11.763 14.648v70.58c-4.693-1.665-9.737-2.58-14.993-2.58-24.802 0-44.98 20.187-44.98 45s20.177 45 44.98 45 44.98-20.187 44.98-45v-100.949l29.946-6.609c8.086-1.785 13.195-9.789 11.411-17.879zm-86.337 140.437c-8.268 0-14.993-6.729-14.993-15s6.725-15 14.993-15 14.993 6.729 14.993 15-6.726 15-14.993 15z"></path><path d="m336.043 55.554c-3.362-2.85-7.809-4.074-12.156-3.351l-119.945 20c-7.23 1.206-12.529 7.463-12.529 14.796v80.58c-4.693-1.665-9.737-2.58-14.993-2.58-24.802 0-44.98 20.187-44.98 45s20.178 45 44.98 45 44.98-20.187 44.98-45v-110.292l89.959-15v62.873c-4.693-1.665-9.737-2.58-14.993-2.58-24.802 0-44.98 20.187-44.98 45s20.177 45 44.98 45c24.802 0 44.98-20.187 44.98-45v-123c-.001-4.41-1.94-8.596-5.303-11.446zm-159.623 169.446c-8.267 0-14.993-6.729-14.993-15s6.726-15 14.993-15 14.993 6.729 14.993 15c.001 8.271-6.725 15-14.993 15zm119.946-20c-8.268 0-14.993-6.729-14.993-15s6.725-15 14.993-15 14.993 6.729 14.993 15-6.725 15-14.993 15z"></path><path d="m255.998 276c-8.28 0-14.993 6.716-14.993 15v154c0 8.284 6.713 15 14.993 15s14.993-6.716 14.993-15v-154c0-8.284-6.712-15-14.993-15z"></path><path d="m315.971 312.094c-8.28 0-14.993 6.716-14.993 15v81.813c0 8.284 6.713 15 14.993 15s14.993-6.716 14.993-15v-81.813c0-8.285-6.712-15-14.993-15z"></path><path d="m76.079 312.094c-8.28 0-14.993 6.716-14.993 15v81.813c0 8.284 6.713 15 14.993 15s14.993-6.716 14.993-15v-81.813c.001-8.285-6.712-15-14.993-15z"></path><path d="m435.917 312.094c-8.28 0-14.993 6.716-14.993 15v81.813c0 8.284 6.713 15 14.993 15s14.993-6.716 14.993-15v-81.813c0-8.285-6.713-15-14.993-15z"></path><path d="m375.944 342.172c-8.28 0-14.993 6.716-14.993 15v21.656c0 8.284 6.713 15 14.993 15s14.993-6.716 14.993-15v-21.656c0-8.284-6.712-15-14.993-15z"></path><path d="m196.025 312.094c-8.28 0-14.993 6.716-14.993 15v81.813c0 8.284 6.713 15 14.993 15s14.993-6.716 14.993-15v-81.813c.001-8.285-6.712-15-14.993-15z"></path><path d="m136.052 342.172c-8.28 0-14.993 6.716-14.993 15v21.656c0 8.284 6.713 15 14.993 15s14.993-6.716 14.993-15v-21.656c.001-8.284-6.712-15-14.993-15z"></path><path d="m15.107 342.172c-8.28 0-14.993 6.716-14.993 15v21.656c0 8.284 6.713 15 14.993 15s14.993-6.716 14.993-15v-21.656c0-8.284-6.713-15-14.993-15z"></path><path d="m496.89 342.172c-8.28 0-14.993 6.716-14.993 15v21.656c0 8.284 6.713 15 14.993 15s14.993-6.716 14.993-15v-21.656c0-8.284-6.713-15-14.993-15z"></path></g></svg>