<!-- icon666.com - MILLIONS OF FREE VECTOR ICONS --><svg fill="none" viewBox="0 0 24 24" xmlns="http://www.w3.org/2000/svg"><path clip-rule="evenodd" d="m10.8936 4c-3.80723 0-6.8936 3.08637-6.8936 6.8936 0 3.8072 3.08637 6.8936 6.8936 6.8936 3.8072 0 6.8936-3.0864 6.8936-6.8936 0-3.80723-3.0864-6.8936-6.8936-6.8936zm-8.8936 6.8936c0-4.9118 3.9818-8.8936 8.8936-8.8936s8.8936 3.9818 8.8936 8.8936c0 2.0956-.7248 4.0219-1.9374 5.542l3.8573 3.8573c.3905.3905.3905 1.0237 0 1.4142s-1.0237.3905-1.4142 0l-3.8573-3.8573c-1.5201 1.2126-3.4464 1.9374-5.542 1.9374-4.9118 0-8.8936-3.9818-8.8936-8.8936z" fill="rgb(0,0,0)" fill-rule="evenodd"></path></svg>